When the focus is fixed very simply on the figure of Jeffrey Hunter as Jesus
Christ and on the acting of a few familiar episodes in the Saviour's life,
there is a certain photographic reverence and purely pictorial eloquence in
Samuel Bronston's elaborate screen biography of the Messiah, "King of Kings".

 
http://en.wikipedia.org/wiki/King_of_Kings_%281961_film%29
 
http://www.imdb.com/title/tt0055047/


R E L E A S E    I N F O

RELEASE..... 11/04/05
RIPPER..... KaKa
COUNTRY..... USA
IMDb RATING..... 6.9/10 (2,234 votes)
FRAME RATE..... 23.976Fps
VIDEO CODEC..... X264 8552K
AUDIO CODEC..... DTS 1536K
RESOLUTION..... 1920x816
RUNTIME..... 171MiN

GENRE..... Biography | Drama

LANGUAGE..... English


Subtitles (not embedded): English, English for hearing impaired, Romanian,
                          Spanish

Screenshots & Sample included


Media Info

Format                            : Matroska
 File size                        : 12.0 GiB
 Duration                         : 2h 50mn
 Overall bit rate                 : 10.1 Mbps
 Encoded date                     : UTC 2011-04-05 23:42:33
 Writing application              : mkvmerge v4.5.0 ('Speed of Light')
                                    built on Feb  1 2011 02:10:32
 Writing library                  : libebml v1.2.0 + libmatroska v1.1.0

Video
 Format                           : AVC
 Format profile                   : High@L4.1
 Format settings, CABAC           : Yes
 Format settings, ReFrames        : 5 frames
 Bit rate                         : 8 552 Kbps
 Width                            : 1 920 pixels
 Height                           : 816 pixels
 Display aspect ratio             : 2.35:1
 Frame rate                       : 23.976 fps
 Color space                      : YUV
 Chroma subsampling               : 4:2:0
 Bit depth                        : 8 bits
 Scan type                        : Progressive
 Bits/(Pixel*Frame)               : 0.228
 Stream size                      : 9.97 GiB (83%)
 Writing library                  : x264 core 114 r1924 08d04a4
 Language                         : English

Audio
 Format                           : DTS
 Bit rate mode                    : Constant
 Bit rate                         : 1 510 Kbps
 Channel(s)                       : 6 channels
 Channel positions                : Front: L C R, Side: L R, LFE
 Sampling rate                    : 48.0 KHz
 Bit depth                        : 24 bits
 Compression mode                 : Lossy
 Stream size                      : 1.80 GiB (15%)
 Language                         : English



                                Enjoy & Please Seed  !		